<svg xmlns="http://www.w3.org/2000/svg" xmlns:xlink="http://www.w3.org/1999/xlink" viewBox="0 0 1017.48 489.82"><defs><style>.cls-1{fill:#fff;}.cls-2{fill:#bf7599;}.cls-3{fill:url(#Light_Spectrum_2);}</style><linearGradient id="Light_Spectrum_2" x1="189.11" y1="366.36" x2="1166.03" y2="366.36" gradientTransform="matrix(0.96, 0, 0, 0.97, -140.57, -110.48)" gradientUnits="userSpaceOnUse"><stop offset="0" stop-color="#a4d1ea"/><stop offset="0.2" stop-color="#9e97d3"/><stop offset="0.4" stop-color="#e5a6c5"/><stop offset="0.6" stop-color="#e7af92"/><stop offset="0.8" stop-color="#f4f0a8"/><stop offset="1" stop-color="#a9dda7"/></linearGradient></defs><g id="Calque_2" data-name="Calque 2"><g id="Graphic_Elements" data-name="Graphic Elements"><path class="cls-1" d="M1009.17,140.28h0a38.07,38.07,0,0,0-17.64-14.16c-1-.43-2.06-.82-3.11-1.18l-.78-.26a30.15,30.15,0,0,0-7.07-1.48c-8.74-1.51-17.18-.34-24,.94a93.35,93.35,0,0,0-6.63-20.25c-5.36-11.57-11.73-20.4-19.46-27C925.93,73.05,914,64.19,899,63c-22.47-4.57-47.83,5.49-65.06,25.94l-.78,1a39.74,39.74,0,0,0-17.78,3.89l-.22-.14A51.06,51.06,0,0,0,810.29,91c-.3-.14-.62-.31-1-.49a48.81,48.81,0,0,0-5.85-2.63c-.89-.42-1.65-.72-2.17-.93l-.18-.07a66,66,0,0,0-12.88-4.22,70.73,70.73,0,0,0-28.82.56,49,49,0,0,0-23.25-11.93c-24.95-5.3-49.48,7.85-65.84,35.21-21.8-12.67-49-11.6-73.1,3.44A100,100,0,0,0,581,122.69a70.34,70.34,0,0,0-52.13-16.62A77,77,0,0,0,491,120.43a52.08,52.08,0,0,0-19.18-15.86,55.07,55.07,0,0,0-30-5.1c-7.86,1-19.2,3.11-28.32,11-13.6,9.6-21.93,25.48-23.38,41.84a58.5,58.5,0,0,0-15.39-4.48,62.05,62.05,0,0,0-39.88,8A64.15,64.15,0,0,0,320,153.4a79.73,79.73,0,0,1,2.11-8.46c.43-1.43.92-2.93,1.46-4.47l.19-.5.6-1.4c.39-.95.79-1.89,1.21-2.83A79.3,79.3,0,0,1,331.44,125l.45-.67.2-.3c.41-.53.76-1,1.05-1.41l.45-.63c1.22-1.59,2.55-3.24,4-4.89,1-1.15,2.27-2.47,3.63-3.86,3.28-3.34,7.35-7.51,10.47-12.87a38.27,38.27,0,0,0,2.45-32.27A41.17,41.17,0,0,0,344.92,54c-.53-.81-1.08-1.6-1.66-2.36A66.72,66.72,0,0,0,334.72,42a63.77,63.77,0,0,0-23.59-13.28c-12.27-3.91-26.57-3.83-41.33.24C243.39,36.28,221,56.94,210,84.27a186.74,186.74,0,0,0-6.81,20.25,25,25,0,0,0-12.82,2.07q-.19-5.49-.51-10.8A180.1,180.1,0,0,0,188,77.16l0-.25a125.43,125.43,0,0,0-2.53-12.5c-.34-1.26-.72-2.54-1.21-4a.59.59,0,0,1,0-.13C178.78,26.14,148.34.28,113.22,0h-.47C84.48,0,58,20.2,45.16,51.58a133.12,133.12,0,0,0-9.57,42c-.3,4.45-.31,8.68-.31,12.77v1.06c0,.93,0,1.86,0,2.8a38.14,38.14,0,0,0-27.85,16A42.2,42.2,0,0,0,1,159.42c3.05,14.7,13,28.8,26.07,36.78a55.85,55.85,0,0,0,30.44,8l-.74,2.66c-2.53,9.06-5.15,18.43-7.58,27.78-8,30.85-16.57,71.49-11.64,112.23,5.16,42.54,23.37,79.41,52.67,106.6,16.12,15,33.31,25.14,51.17,30.36a19.82,19.82,0,0,0,6.86,2.65c35.68,6.72,76.48,4.08,108.24-15.12,14-8.45,26.35-20.21,37.63-31.95a105,105,0,0,0,14.64-18.79c23.43-6.93,44.42-26.15,56.46-52.13.68-.88,1.34-1.77,2-2.68a57.27,57.27,0,0,0,37.49,13.41,59.21,59.21,0,0,0,21.12-4.36c15.37,11.39,32.85,16.62,50.27,14.84,18.71-1.92,36.11-11,49.28-25.53a90.14,90.14,0,0,0,33.85,1.5A104.89,104.89,0,0,0,597,352.38l.36-.2,4.4-2.53a71.89,71.89,0,0,0,41.79-.66c10.16-3.22,19.71-8.71,29.2-16.77a70.16,70.16,0,0,0,6.28-6.09c16.91-2.79,31.6-13.55,44.3-23.73,3.52-2.83,7.33-6,11.22-9.5A50.43,50.43,0,0,0,747.65,311c10.51,9.22,24.66,13.91,39.8,13.25a79.39,79.39,0,0,0,28.26-6.75c17.3,7.47,37.94,3.05,52.82-11.77a56.16,56.16,0,0,0,11.4-16.39,50.23,50.23,0,0,0,2.29-6.36c.13-.42.26-.86.38-1.23.64-1.2,1.52-2.87,2-3.94s1-2.34,1.46-3.51c13,9.53,27.94,14.07,42.47,12.46,16.76-1.86,33.17-11.31,46.5-26.7,9.28-6.28,15.6-15.17,19.37-21.82,4.82-8.49,7.51-17.56,9.89-25.56l.39-1.32c.14-.45.28-.9.43-1.35.24-.78.49-1.56.72-2.35.21-.49.43-1,.64-1.46.59-1.3,1.2-2.58,1.81-3.87,1.27-2.67,2.58-5.43,3.81-8.47C1022.29,168.53,1016.13,150.74,1009.17,140.28Z"/><path d="M994.6,150a20.41,20.41,0,0,0-9.7-7.65c-.67-.29-1.36-.56-2.07-.8l-.79-.27a13.49,13.49,0,0,0-3.69-.68c-7.22-1.45-15,0-22.08,1.45a48.39,48.39,0,0,0-14.74,5.34c-.28-12.41-2.23-24.77-7.49-36.12-3.63-7.83-8.3-15.37-14.92-21-5.81-4.95-14.34-9.55-22.54-9.88-18.29-4.31-37.53,5.92-49.25,19.83A71.34,71.34,0,0,0,841,108.9a22.83,22.83,0,0,0-20.34,1.9,29,29,0,0,0-5.58,4.64,56.67,56.67,0,0,0-9.07-6.89,33.24,33.24,0,0,0-3.22-1.73,37,37,0,0,0-6.2-2.75l0,0a12,12,0,0,0-2.24-1,49,49,0,0,0-9.49-3.19c-10.35-2-21.24-.48-31.37,3.38a32.15,32.15,0,0,0-21-14.81c-21-4.45-37.89,11.07-47.75,28.05A99.72,99.72,0,0,0,676.43,135a50.88,50.88,0,0,0-9-9.39c-18.36-14.58-41.69-12.82-60.89-.84-10,6.26-18.67,15.07-25.84,24.91a40,40,0,0,0-3.88-6.16,52.77,52.77,0,0,0-46.27-20c-18,1.69-33.81,11.56-44.27,26.33-.54.76-1.06,1.53-1.58,2.3-.15-13.08-8.66-26.24-20.27-31.71a37.89,37.89,0,0,0-20.47-3.56c-6.91.83-14.44,2.58-19.6,7.37-15.39,10.27-21.26,32.69-13.49,48.72a51.84,51.84,0,0,0-7,12.82C396.2,175.23,385.1,167,372.22,165.1s-25.11,2.39-35.05,10.1a47.49,47.49,0,0,0-25.94-4,49,49,0,0,0-11.59,2.91c.41-1.71.78-3.42,1-5.16.5-3.43.76-6.89,1.07-10.34l.3-3.47c0-.37.06-.67.08-.92s.08-.51.13-.84a94.1,94.1,0,0,1,3.11-13.56q.83-2.7,1.76-5.38c.16-.41.38-1,.49-1.22.66-1.56,1.3-3.13,2-4.68a98.28,98.28,0,0,1,7.17-13.09l.91-1.35s1.71-2.35,1.91-2.62q2.24-2.92,4.62-5.72c4-4.68,9.2-8.86,12.3-14.2a20.66,20.66,0,0,0,1.25-17.17,25.26,25.26,0,0,0-6.65-9.47,24.29,24.29,0,0,0-1.8-2.74,51,51,0,0,0-6.23-7.09,46.82,46.82,0,0,0-17.26-9.67c-10.11-3.22-21.29-2.33-31.37.44C252.17,52,234.88,69.42,226.27,90.81c-10.61,26.33-13.65,54.36-15.83,82.5-2.13,27.48-2.84,55-4.2,82.55q-.54,11-1.22,22c-.25,4-.53,8-.89,11.93,0,.25-.06.53-.1.89-.27,2.39-.53,4.77-.85,7.16a180.85,180.85,0,0,1-3.9,19.31c-.08.33-.15.61-.19.83s-.15.33-.25.53c-.65,1.47-1.29,2.93-2.05,4.35-.13.25-.77,1.25-1.21,2l-1.92.65c-.23.09-1.9.72-3.12,1.08l-.75.1c-1,.12-2,.2-3,.24s-2,0-3,0l-1.25-.07c-1-.27-2.06-.7-2.65-.81s-1.12-.35-1.33-.4c-.4-.18-.8-.37-1.19-.57l-.14-.08a23.67,23.67,0,0,0-2.8-3.16,23.3,23.3,0,0,0-4.27-3l-.87-.79c-.09-.18-.21-.38-.34-.62-.51-.92-1.05-1.84-1.58-2.75,2.23,3.82-.13-.4-.45-1.29-.54-1.52-.9-3.09-1.38-4.64-.06-.2-.16-.51-.27-.81-.16-1.1-.16-2.31-.26-3.35-.24-2.71-.38-5.42-.44-8.14-.16-6.09.08-12.18.33-18.27.51-12.39.74-24.78,1-37.18.27-11.89,1.49-23.72,2.52-35.57,2.11-24.29,4.23-48.61,4.7-73,.24-11.85.1-23.72-.63-35.56A164.11,164.11,0,0,0,170.71,80c-.62-3.7-1.22-7.42-2.2-11-.38-1.4-.82-2.78-1.28-4.15.06.59.12,1.18.17,1.77a32.34,32.34,0,0,0-.48-3.38c-4-26.34-27.84-45.51-53.84-45.71C89,17.31,70,37,61.36,58.2a114.81,114.81,0,0,0-8.31,36.55c-.29,4.22-.27,8.44-.27,12.66,0,2,0,4-.05,5.92,0,1.11,0,2.21-.1,3.32,0,.84-.86,5.09-.08,2,.81-3.22-.15.81-.23,1.32-.13.86-.28,1.71-.45,2.56-.22,1.05-.46,2.09-.75,3.12l0,.15c-.74,1.65-2.26,5.72-1.23,2.86.9-2.51-.37.23-1,1l-.12.16-.18.15c-2.17-.79-6-2-4.61-1.66-2.4-.65-.47-1.07-5.94-.8a20.61,20.61,0,0,0-16.29,8.71c-10.72,15.3.52,36.5,14.45,45a38.68,38.68,0,0,0,22.39,5.36c1.78-.12,7.08-1.71,7.32-1.21q2.24-.45-1.43.51a13.26,13.26,0,0,0,2.09,0,40.45,40.45,0,0,0,11.28-2.31c1.3-.49,2.56-1,3.78-1.62-.24.92-.46,1.84-.7,2.76C76.2,202.89,70.83,220.87,66.11,239c-8.88,34.2-15.5,70.26-11.2,105.72,4.45,36.75,20,70.68,47.2,95.88,13.77,12.79,30.25,23.26,48.58,27.57a94.41,94.41,0,0,0,26.81,2.3,124.34,124.34,0,0,0,16.41-2.29c1.93-.37,3.85-.77,5.76-1.24,1.09-.26,2.18-.55,3.26-.85.33-.08.65-.18,1-.27.86,0,2.63,0,2.52,0a57.67,57.67,0,0,0,6.55-1.07,39.52,39.52,0,0,0,7.22-2.1,156.38,156.38,0,0,0,16.21-7.89,258.75,258.75,0,0,0,25.7-15.62A176.47,176.47,0,0,0,287,418.29a75.88,75.88,0,0,0,10.36-13c23.87-3.86,43.14-23.94,52.82-46.09C355.75,352.69,359,345,360.81,336c.71-3.55,1.25-7.13,1.7-10.73a71.07,71.07,0,0,0,5.22,13.82c7.06,13.85,21.12,22.95,36.62,22.67,8.74-.16,16.73-3.19,23.86-7.78,12.34,12.1,28.45,20.14,46.08,18.34,18.55-1.9,34.53-13,44.66-28.34a75.25,75.25,0,0,0,37.7,4.41,87.74,87.74,0,0,0,31.72-11.18c3.79-2.16,7.67-4.37,11.46-6.75a54.76,54.76,0,0,0,38.47,1.88c8.71-2.76,16.24-7.55,23.16-13.43a76.1,76.1,0,0,0,9-9.56c15.26.12,30.13-11.11,41.93-20.57,13-10.45,25.22-22,33.94-36.3a88.23,88.23,0,0,0,.26,17.12c1.27,10.66,4.26,21,12.57,28.27,7.55,6.62,17.64,9.37,27.49,8.93a64.41,64.41,0,0,0,29.67-9.23,24.79,24.79,0,0,0,3.57,2.51c12.31,7.13,26.68,2.82,36.26-6.72A38.34,38.34,0,0,0,864,282.1c1.09-2.38,1.63-5.1,2.59-7.54.5-.88,1.7-3.16,1.93-3.69a119.41,119.41,0,0,0,7.78-25.36c.5-2.69.91-5.39,1.28-8.1a59.5,59.5,0,0,0,7.26,11.64c10.06,12.44,25.25,22.14,41.75,20.31,14.61-1.62,27.54-11.3,36.79-22.65,6.69-3.85,12-10.45,15.79-17.1,4.06-7.17,6.39-15.38,8.73-23.25.41-1.37.89-2.74,1.27-4.12-.37,1.23-.65,1.37.06-.3l.06-.12v0q.6-1.41,1.23-2.82c1.76-3.9,3.73-7.7,5.33-11.68C1000.79,175,1002.32,161.57,994.6,150ZM49.36,129.87l0,0Zm141,196.71c-.58.17-1,.26-1.13.17Zm-6.11.37a3.21,3.21,0,0,1-1.75-.12ZM48.41,130.17l-.11.1h0l-.57-.12.55.13-.13.05-.31.08a9.09,9.09,0,0,1-1.26,0A3.87,3.87,0,0,1,48.41,130.17Zm155,335.74s0,0,.07,0Z"/><path d="M989.16,202.24c0-.13.08-.27.12-.43h0Z"/><path class="cls-2" d="M454.94,282.82c-.44,10.89-1.75,27,5.95,35.77a18.37,18.37,0,0,0,16,6,16.32,16.32,0,0,1-8.15-3.26C460.2,315,458.1,304.24,459,294.15c1.09-12.74,4.36-25.38,6.17-38,1.92-13.47,3.9-27.2,2.52-40.83a59.76,59.76,0,0,0-5.58-19.83c.8,4.1.66,8.51.48,13.34C461.63,233.64,456,258,454.94,282.82Z"/><path class="cls-2" d="M330.86,216a84.3,84.3,0,0,1,6.3-11.79c-1-1.41-1.89-3.16-3.05-4.21A21.13,21.13,0,0,0,324,195.13a34.13,34.13,0,0,0-10-.49l.21.07C323.06,198,327.89,207.18,330.86,216Z"/><path class="cls-2" d="M164.8,345a43.67,43.67,0,0,1-11.73-10.22c-10.59-10.61-12.3-27.45-12.33-42.25,0-10.67.32-21.33.88-32s1.33-21.3,2.21-31.92q.64-8,1.36-16c.93-10.56,1.71-21.12,2.64-31.67.83-9.56,1.59-19.11,2.12-28.69.58-10.69,1-21.38,1-32.08,0-9.47-.18-18.94-.75-28.39a129.55,129.55,0,0,0-2-17.89c0,1-.1,1.93-.19,2.9-.76,8.24-2.07,16.44-3,24.67q-3,27-4.89,54.14c-2.6,36.7-3.59,73.49-5.62,110.23-1.41,25.63-5.18,55.81,14.56,75.94,12.2,12.43,32.2,14.86,47.44,7.49A41.94,41.94,0,0,1,164.8,345Z"/><path class="cls-2" d="M529.73,190.35c-5.27,1.9-8.74,7.75-11,12.59a90,90,0,0,0-7.79,34.4c-.74,21.85,6.07,50.41,28.11,59.51a40,40,0,0,0,24.41,1.93,45.54,45.54,0,0,1-17.31-4.89A44.56,44.56,0,0,1,526.85,275c-5-9.67-6.47-21.11-7.14-31.87-.67-10.6.2-21.52,4.18-31.43,3-7.51,8.32-15.78,16.48-17.84C537.75,190.76,534.38,188.66,529.73,190.35Z"/><path class="cls-2" d="M276.68,137.62c-6.07,20.87-8.5,42.66-10,64.3-1.93,27.87-3.82,56.09-2,84,.84,13.07,1.83,27.26,6.25,39.67,3.32,9.34,9,20.69,18,25.59a12.4,12.4,0,0,0,11.88.46,18.1,18.1,0,0,1-11.06-2.53c-7.81-4.71-11.37-14-13.3-22.59-2.24-9.89-2.83-20.1-3.46-30.2q-1-16-1.24-32c-.34-21.89.35-43.8,2.19-65.61,1.35-15.94,2.85-32.14,6.32-47.83,2-26.14,17.76-50.92,35.95-68.66-.92-1-1.82-2-2.7-3C294.65,93.64,283.28,114.93,276.68,137.62Z"/><path class="cls-2" d="M794.36,243.9c-.88,3.6-2.14,7.24-2.77,10.89-.85,5,4.14,5.38,7.63,4.07.35-.13.68-.29,1-.44v0c.09-12.87,3.49-25.8,5.93-38.39s5.4-25.33,6.92-38.15c1.48-12.46,1.09-25.81-4.55-37.26a38.28,38.28,0,0,0-9.29-12.07c7.71,10.75,11.23,25.89,11.63,37.64C811.77,196,800.35,219.45,794.36,243.9Z"/><path class="cls-2" d="M686.37,210.68a93,93,0,0,1,1.84,18.83,107.26,107.26,0,0,1-.82,15.26,67.52,67.52,0,0,0,7.06-9.72c.48-10.92.78-22.23-3.43-32.49a33.17,33.17,0,0,0-9-12.8c-2.47-2.11-5.69-3.42-8.19-5.52.22,1.25.42,2.49.62,3.71C682.39,191.64,684.86,202.87,686.37,210.68Z"/><path class="cls-2" d="M435.58,167.44c7.1,2.51,15.64.07,18.75-7.31,2.49-5.93,1-13.48-4.73-16.82s-11.7-1.41-16.27,3c-2.95,2.83-3.91,7.67-3.88,11.64C429.48,162.43,431.49,165.65,435.58,167.44Z"/><path class="cls-2" d="M913.85,166.37c-.29,7.29-.71,14.58-.91,21.88-.14,5.3-.77,11.14.61,16.33,2.33,8.7,11.22,6.72,16.18,1.36a21.43,21.43,0,0,0,2-2.5,10.16,10.16,0,0,1-12-4.77c-2.48-4.45-2.23-10-2.15-14.95.1-6.64.63-13.27,1-19.89.73-12.36,1-24.9-2.73-36.85a43.47,43.47,0,0,0-9.33-16.7,43.74,43.74,0,0,1,5.29,14.55C914.53,138.48,914.4,152.52,913.85,166.37Z"/><path class="cls-2" d="M110.32,130.76c-.15-6.69-4.69-11-11-7.7-5.28,2.75-8.08,8-10.44,13.24-4.09,9.14-8,18.61-15.82,25.18a28.69,28.69,0,0,1-2.72,2,26.45,26.45,0,0,0,6-3c5.55-3.73,8.72-9.26,12-15,4.51-7.83,12.08-17.15,22-14.79Z"/><path class="cls-2" d="M456.8,161.83a17.87,17.87,0,0,1-7.71,7.88,15,15,0,0,0,6.26-2.36,15.9,15.9,0,0,0,7-13.07,14.69,14.69,0,0,0-7.48-12.59,14.12,14.12,0,0,0-2.17-.92C459.24,145.38,460.3,154.8,456.8,161.83Z"/><path class="cls-2" d="M713.11,161.23c-1-3-.08-7.72.41-10.1a30.41,30.41,0,0,1,7.15-14.29l.21-.19a3.86,3.86,0,0,0-1.37-1.17c-2.51-1.28-5.09,2.19-6.47,4a41.58,41.58,0,0,0-7.79,17.31c-.55,3.1-1.71,12.94,3.82,11a15.53,15.53,0,0,0,5.44-3.57A5.15,5.15,0,0,1,713.11,161.23Z"/><path class="cls-2" d="M224.26,436.83l.05,0c7.33-4.06,14.53-8.33,21.47-13a163.31,163.31,0,0,0,20.92-16.54c6-5.69,12.16-12,13.95-20.42a37.42,37.42,0,0,1-11-4.08C262,405.64,245,424.55,224.26,436.83Z"/><path class="cls-2" d="M978.17,167.07c-2,4.16-5.84,7.2-7.87,11.47-3.66,7.66-4.77,16.26-6.54,24.5a78.07,78.07,0,0,1-7.83,21.24,36.36,36.36,0,0,0,5.38-8.25c2.79-5.91,4.38-12.28,6.37-18.48A119.45,119.45,0,0,1,974.81,181c2.32-4.67,3.93-9.32,3.44-14.18Z"/><path class="cls-3" d="M965,181.46a42.88,42.88,0,0,1,4-8.34c.94-1.5,6.95-7.57,5.45-9.63-3.64-1.48-8.89.33-12.5,1.09a28.14,28.14,0,0,0-8.44,2.7c-5.59,3.18-8.18,9.34-10,15.26-3.12,9.92-4.72,21.77-13.74,28.26C922.43,216,912.5,214.23,910,205c-1.34-4.91-.93-10.25-.82-15.28.17-7.3.58-14.59.88-21.88.56-13.26.82-26.65-1.34-39.79-1.82-11-6.06-24.09-19-24.93-12.14-.8-23.08,7.91-29.1,17.92-2.88,4.78-4,9.84-5.92,15-1.11,3-2.9,5.26-6,6.32s-6.64,1-9.13-1.17a10.63,10.63,0,0,1-2.55-4c-1.3-3-2.93-9.21-7.08-3.59-3.54,4.8-2,13.08-1.51,18.62a154.13,154.13,0,0,1,.29,17.06c-.62,24-2.77,49.3-11,72-2.73,7.54-6.79,15.36-14.08,19.24-5,2.64-15.23,4.53-16.1-3.67-.52-4.81,2.35-11,3.49-15.72a149.28,149.28,0,0,1,4.84-16.63,191.89,191.89,0,0,0,9.92-36.77c3.52-21.95-.73-63.85-29.41-65.46a33.7,33.7,0,0,0-15.91,3.48,78.16,78.16,0,0,0-10.09,5.59c-2.28,1.5-7,4.19-7.18,7.34-.12,2.09-3.66,1.45-3.75-.39-.52-11.37-4-34.73-20.83-25.18-9.08,5.15-14.84,15.38-18.59,24.86-4.26,10.76-6.76,22.15-5.62,33.8,1,10.48,4.93,25.17,16.11,28.81.79.25,1.65,1,1.39,2s-.44,1.63-.66,2.45a1.31,1.31,0,0,1-.3.53c-3.47,10.84-7.49,21.86-13.44,31.55v.05a1.62,1.62,0,0,1-.94,1.45,65.46,65.46,0,0,1-11.47,13.59c-1,.89-3.78-.27-3.18-1.79,2.42-6.15,2.32-13.81,2.46-20.38a89.17,89.17,0,0,0-1.12-15.74c-1.1-7.08-3-21.34-11-24.05a2,2,0,0,1-1.44-1.58c-3.38-20.9-11.58-57.21-40.25-49.62-13.27,3.52-24,14.66-31.86,25.49-8.47,11.63-14.4,24.94-18.74,38.67a150.27,150.27,0,0,0-7.17,40.4c-.39,12.19-.19,27.39,6.26,38.12,1.71,2.84,4.34,6.18,3.1,9.65-.89,2.49-3.28,4.33-5.73,5.74a1.55,1.55,0,0,1-1.21,1l-.95.17c-.41.21-.82.41-1.21.59A42.75,42.75,0,0,1,546,302c-21.49-4.37-32.92-23.24-37.09-43.82a94.18,94.18,0,0,1-.05-36.27c1.94-10.21,5.22-22.57,12.74-30.15,6-6.05,14.42-6.44,20.76-.6,1.53,1.41,2.43,3.19,3.7,4.79,4,5.07,6.85,4.6,9.92-.15a43.93,43.93,0,0,0,6.35-20.26c1-13.44-5.43-24-18.43-27.87-12-3.55-25.39,1.14-34.1,9.91-17.17,17.27-23.4,46-25.41,69.59-2.22,26,.31,54.25,15.24,76.31a1.35,1.35,0,0,1,.23,1.15c-3.62,7.68-6.65,17.07-14.87,21.09-6.21,3.05-13.8,2.64-20-.31-7.56-3.62-11.44-10.59-12.85-18.74-1.95-11.37-1.33-23.36-.3-34.79,1.9-21.22,6.12-42.12,6.9-63.45.17-4.68.81-9.58-.35-14.17-1.26-5-5.29-9.48-9.7-11.89-10.46-5.72-20.19,2.46-23.84,12.25s-4.33,21.31-5.28,31.7a272.58,272.58,0,0,0-1.05,33.93c.38,11.1,1.13,22.42,4,33.17,2.21,8.28,3.55,16.8,1,25.21-1.72,5.67-6.83,13.34-13.73,11.44-8.27-2.28-6.59-13.65-6.86-20.11-.92-21.91-3.52-43.86-5.54-65.7-1.67-18.08-3.76-42.31-20.59-53.09-20.85-13.36-38,14.56-44.4,31-.58,1.47-3.23,1-3.62-.39-2.06-7.56-4.81-15.81-10.83-21.12-8.45-7.46-18.21-1.75-24,6-5,6.66-8,15.47-6.81,23.89.66,4.68,2.57,9.89,8.16,8.06,3.36-1.1,5.62-3.81,7.58-6.63.86-1.24,2.92-.38,3.43.74,7.38,16,9,35,9.44,52.5a1.1,1.1,0,0,1,0,.18c0,.29,0,.58,0,.87,0,0,0,0,0,.08,0,9-.9,17.7-1.68,26.64-.94,10.71,1.89,25-3.93,34.53-4.16,6.83-13.33,10.28-20.8,7.25-8.83-3.58-14.77-12.75-18.85-21-5.8-11.77-7.48-25-8.8-37.95-3.21-31.41-1-63.37,1.23-94.78,3.11-44.41,10.54-96,48.2-124.42a23.21,23.21,0,0,0-16-9.54c-13.24-2-27.15,5-36.1,14.56-8.43,9-13.21,20.74-16.62,32.52-9.68,33.47-10.3,69.43-11.93,104.06-1.43,30.51-1.17,61.69-6.15,91.89-3.32,20.19-12.19,39.64-33.41,44.9-21.6,5.35-42.77-3.5-53.34-23.48a75.82,75.82,0,0,1-8.22-31.86c-.75-16.12,1.31-32.62,2.17-48.71,2-36.5,2.94-73,5.87-109.47,1.44-17.92,3.16-35.84,5.42-53.67.89-7.05,2.39-14.33,1.34-21.45-1.23-8.28-6.54-15.44-13.32-20-14.34-9.68-30.61-5.37-40.74,8s-14.41,30.38-14.72,47c-.26,14.47,1.07,30.79-8.31,42.93-6.23,8.07-17.41,12-26.7,7.84a14.58,14.58,0,0,0,10.24,12.57c6.38,1.95,13.44-.59,18.55-4.53,9.53-7.37,12.65-18.86,18.06-29.1,3.42-6.48,11.08-14.73,19.26-11.77,9.27,3.36,7.55,15,6.63,22.65-5.32,44.15-22,86-31.07,129.36C73.18,314,72,361.45,96.21,399.74c10.53,16.64,25.05,31.64,42.26,41.15,16.43,9.08,34.82,10.06,52.81,5.75,33.42-8,64.92-33,75.29-66.92.33-1.1,1.94-1.1,2.72-.6.59.37,1.18.73,1.78,1.07,14.06,7.92,29.9,3.86,41.6-6.38,7.76-6.79,14.15-15.86,17.05-25.9,3.46-12,3.42-25,4.38-37.34,1-12.81,1.49-25.45,3.48-38.16A167.43,167.43,0,0,1,342,251.48c1.18-4.06,2.33-8.34,5.4-11.36,5.89-5.8,16.18-8.48,22.27-1.75,6.7,7.42,8.37,17.86,9.1,27.51.93,12.24,1.82,24.46,2.91,36.69,1.05,11.65,1.71,27.58,12.29,34.94,12.85,8.95,27.36-5.17,35-14.57,1-1.19,2.83-.4,3.44.74,7.94,15,22.27,29.33,40.49,27,16.79-2.12,30.92-19.46,33.59-35.7.24-1.41,2.43-.9,3.12-.32C525.83,328.43,550.9,331.54,570,322c5-2.49,9.8-5.56,14.55-8.5,2.5-1.54,5-3.09,7.39-4.76.88-.6,1.72-1.37,2.64-1.91s.87-1.32,1.26-.55c-.92-1.81,2.23-1.88,3.08-1.09,10.56,9.74,25.34,10.48,37.76,4a53.2,53.2,0,0,0,15.11-12.09c3.57-4,6.17-8.47,10.16-12.06.69-.63,2-.25,2.64.3,7.7,6.88,17.35-1.63,23-7.1A125.2,125.2,0,0,0,702.16,261a181.14,181.14,0,0,0,22.12-42.15c3.38-9.05,5.21-18.34,7.59-27.69,2.21-8.69,5.1-18.11,11.59-24.57,6.9-6.87,16.64-8.11,25.37-4.13,9.79,4.45,12,14.63,12.79,24.61,1.1,14-2.77,27.46-7.12,40.58-4.08,12.29-5.4,24.75-5.28,37.66,0,5.06.25,10.9,3.17,15.24,4.24,6.31,12.74,5.37,19.12,3.72a51.74,51.74,0,0,0,30-21.78c.88-1.34,4.14-.12,3.46,1.52-1.44,3.47,1.71,10.9,3.22,14.16,5.14,11.05,15-3.89,16.52-9.69,1.69-6.33,1.62-13,2.13-19.5.47-6,.8-11.93,1.07-17.91,1-22,1.34-47.17,14.36-65.88,4.66-6.69,14.91-17.17,21.58-6.6,3.35,5.3,4.11,12.78,4.93,18.89,1.09,8.09,1.41,16.27,2.26,24.39,1.29,12.32,4.12,25.34,11.91,35.27a28.55,28.55,0,0,0,15.22,10.39c7.84,2,14.94-2.68,20.62-7.68,11.29-9.94,18.17-23.25,21.32-37.94C961.58,195,962.59,188.05,965,181.46ZM654.68,228a208.7,208.7,0,0,1-.8,24.63c-.56,5.27-2.42,10.26-6.67,13.57-3.69,2.88-8.31,4-12.84,4.57-2.41.33-4.83.65-7.25,1-1.09.16-2.17.37-3.27.51-.76.09-1.73.69-1-.06-1,1-3.5.55-3.52-1.12-.05-3.9.06-8.53-2.14-11.92-3.1-4.79-7.58-2.7-12.07-2.19-7.62.87-9.51-4.79-10.37-11.26-1.8-13.54-.56-27.81,4.84-40.4,5-11.56,15-25.76,28.45-27.11C652.32,175.75,654.33,211.26,654.68,228ZM719,164.91c-3.72,4.22-14.66,10.84-17.4,1.85-2.92-9.61,2.52-21.59,8.19-29.12,2-2.65,4.72-5.59,8.27-5.57s6.11,3,7.33,6.06C728.83,146.83,724.42,158.08,719,164.91Z"/><path class="cls-2" d="M610.68,207.16c2.58-7,5.9-13.67,12.14-18a27.31,27.31,0,0,1,16.67-4.85,12.86,12.86,0,0,0-3.93-2.4c-6.29-2.4-13.08.58-17.94,4.68-9.75,8.24-15.8,20.26-18.38,32.72a76.76,76.76,0,0,0-1.44,18.83,86.64,86.64,0,0,0,.94,9.64c.35,2.27.44,3.84,2.33,5.25,2.09,1.56,3.74.8,6.12.29l.7-.13C599.26,239.66,605.68,220.75,610.68,207.16Z"/><path class="cls-2" d="M738.19,183.22c-3.28,9.33-4.59,19.2-7.45,28.65a178.8,178.8,0,0,1-16.34,37,158.48,158.48,0,0,1-16,23.26c2.71-2.09,5.38-4.22,7.95-6.48,7.77-6.85,15-14.54,20.41-23.44,6.31-10.31,9.69-22,13.36-33.47,4.73-14.79,10.35-43,30.51-41.59a16.51,16.51,0,0,0-6.84-3.5C750.35,160.26,742.09,172.11,738.19,183.22Z"/><path class="cls-2" d="M360.79,237.32c-2.9.11-6.25,1.82-8.52,3.47-5.26,3.8-6.52,11-8,17-3.54,14.45-4.86,29.09-5.78,43.9-.47,7.38-1.09,14.76-1.76,22.12-.61,6.7-.39,13.67-1.6,20.32a47,47,0,0,0,3.38-9.33,125,125,0,0,0,2.83-17.74c1.08-11.56,1.17-23.19,2.55-34.72,1.24-10.29,3.22-22.4,9.59-30.87,4-5.28,11-8.54,17-6.13C368.56,241.34,365.56,237.15,360.79,237.32Z"/><path class="cls-2" d="M880.34,159.19c-.64-.61-5.09-1.72-6.08-1.37-1.55.53-3.17,2.62-4.25,3.75a46.48,46.48,0,0,0-5.42,6.91,64.79,64.79,0,0,0-7.65,17.87c-6.38,23.1-4.55,47.49-6.79,71.2a131.49,131.49,0,0,0,4.15-15.13c2.39-11.68,2.73-23.45,3.77-35.28a76.22,76.22,0,0,1,8.7-30.16c3.29-6,8.58-13.58,15.78-12.66-.18-.56-.36-1.11-.56-1.67C881.58,161.5,881.22,160,880.34,159.19Z"/><path d="M977,161.53a2.55,2.55,0,0,0-.53-.32c-4.16-1.88-8.57-1.06-12.9-.19s-8.86,1.56-12.76,3.85c-9.33,5.47-11,17.36-13.91,26.9-.5,1.65-1.05,3.3-1.68,4.92a1.91,1.91,0,0,0-.65.62c-3.51,5.31-10.78,3.38-12.69-2.18-1.83-5.3-1-11.94-.77-17.44.52-11.77,1.89-23.59.92-35.38-.75-9.17-2.92-18.4-7.51-26.41-3.94-6.87-10.92-15.08-19.4-15.21a.24.24,0,0,0-.22.16c-16.69-5.92-35.2,10.58-41.14,25.54-1.52,3.83-1.77,10-5.4,12.42-7.14,4.86-7.68-5.35-11-8.91-6.81-7.25-12.33,3.69-13,9.67-.59,5.59.5,11.16.74,16.73.31,7.26,0,14.6-.42,21.84a278.82,278.82,0,0,1-4.8,40.75c-2.08,10.24-4.5,21.75-10.13,30.69a24,24,0,0,1-7.69,7.91c2-14.35,5.68-28.6,8.5-42.79,2.75-13.81,6.14-27.74,6.6-41.89.65-20.14-7.7-43.47-27.58-49.62a27.12,27.12,0,0,0-7.57-3.27c-8.87-2.29-18.07.29-26,4.32-3.37,1.71-9.38,4.37-13.12,8-1.08-10.57-4.36-23-16-24.26-12.56-1.32-22.37,12.31-27.32,22.16-6.72,13.37-10.51,28.82-8.39,43.83,1.56,11.05,6.07,24,16.87,28.71-2.79,8.82-5.88,17.9-10.1,26.28.13-9.67-.52-19.44-4.53-28.31A34.83,34.83,0,0,0,685,189c-3.43-3.06-7.43-4.37-11.43-6.18-2.62-14.81-6.81-31.36-18.21-41.15-14.89-12.78-34.67-4.8-47.42,6.91-16.23,14.93-26.28,35.49-32.52,56.52-6.45,21.74-9.38,46.75-3.22,68.94,1.27,4.56,3.36,7.67,5.49,11.79,1.84,3.56.64,5.56-2.49,7.83-.38.27-.78.52-1.17.77a41.71,41.71,0,0,1-29.46-5.65c-10-6.12-16.2-15.66-19.13-27-3.08-11.92-4.2-25.1-2.2-37.29,1.84-11.21,7-25,18.76-28.42.72,1.06,1.38,2.17,2,3.23,4.08,7.08,12.28,3.33,15.66-2.22a46.32,46.32,0,0,0,6.07-30.68c-3.11-18-23.74-25.8-39.7-21.85-20.3,5-31.24,24.73-37.51,43.43a169.63,169.63,0,0,0-7.71,69.83,109.49,109.49,0,0,0,7.79,32.35c.9,2.11,1.89,4.19,2.95,6.22s3.51,4.71,4.05,6.89-1.33,5.35-2.16,7.32a31.82,31.82,0,0,1-2.26,4.38c-4.36,4.29-10.33,7.48-16.34,5.49s-10.18-7.92-11.71-13.89c-2.12-8.27-.21-17,1.29-25.18q2.11-11.47,3.77-23c2.08-14.65,4.41-29.9,2.35-44.69-1.58-11.36-5.9-24.07-15.61-30.89a.17.17,0,0,0-.25.08c-6-5.18-14.32-7.19-21.64-3.62-8.9,4.34-12.48,14.19-14.16,23.43a274,274,0,0,0-3.88,36,249.93,249.93,0,0,0,1.07,38.59c1.29,12,6.63,23.92,4.79,36A26.21,26.21,0,0,1,419,320a17.18,17.18,0,0,1-1.81,3.17c-1.86,2.53-6.24,7.05-9.56.74-1.34-2.54-.7-7.19-.78-9.91-.09-3.65-.28-7.29-.53-10.93-.86-12.79-2.22-25.57-3.34-38.34-1.85-21.13-1.4-45.87-13.17-64.38-4.74-7.45-11.78-13.73-20.61-15.29-9.4-1.66-18,3.23-24.48,9.73a54.93,54.93,0,0,0-5.68,6.71,23,23,0,0,0-13.1-9.13c-7.25-2-18.69-2-24.8,3.37-5.37,2.65-10,7.64-12.85,12.57-4.67,8-8.68,23-1.43,30.91,5.33,5.79,12.73,1.88,17.27-3,6.2,15.37,7.5,33,7.91,49.37.11,14.61-2.11,29.08-2.84,43.68-.28,5.65-.09,11-2.5,15.91-6.11,5.48-15.4,2.13-20.1-3.8-5.53-7-7.26-16.78-8.4-25.41-2.48-18.86-3-38.17-3.24-57.18q-.35-29.38,1.78-58.72a288.88,288.88,0,0,1,3.91-29.39c1.82-10.14,1.57-18.2,4-27.7a133.33,133.33,0,0,1,10.81-28.81,136.94,136.94,0,0,1,24-30.9,1.57,1.57,0,0,0-.08-2.17c-1.36-1.18-2.7-2.36-4.09-3.49a1.37,1.37,0,0,0-.19-1.21C301.68,54.56,270.63,64.1,256.2,79.2c-8.08,8.46-13,19.48-16.46,30.58-4.74,15.18-7.31,31-8.92,46.78-3.68,36.13-4.17,72.52-6.19,108.76-.76,13.76-1.5,27.67-3.55,41.31C219.5,317.13,217,328,211,336.93c-1.22,1.82-2,3.3-4.07,4.38-13.06,6.95-28.51,8.12-41.53.16a34.12,34.12,0,0,1-7-5.22c-3.17-3.33-6.42-6.87-8-11.25-1.72-4.8-3.56-9.22-4.27-14.34-2-14.23-.48-29.23-.15-43.54q.36-16,.73-32.07c0-.62.09-1.23.14-1.85,2.93-37.38,7.24-74.76,7-112.31-.07-10.17-.44-20.34-1.32-30.48a74.35,74.35,0,0,0-4.32-20.52,29.94,29.94,0,0,0-2.73-11.6,37.29,37.29,0,0,0-29-20.42C103.05,36.46,92,44.42,84.76,55.33,76.47,67.91,72.3,83,71.76,98.06c-.56,15.6,2.15,35.95-10.93,47.47-5.89,5.2-14.63,7-21.4,2.53-1-.66-2.66-.36-2.77,1-.66,7.93,4.73,15,11.91,17.82a21.46,21.46,0,0,0,13.55.42c8.69,1.15,18.3-4.93,23.29-11.49,6-7.89,12.17-25.49,24.88-21.6-.33,11.51-3.41,23.46-5.83,34.54C102,180,99.08,191.18,96,202.3c-6.23,22.75-13,45.37-17.76,68.49-8.87,43.06-9.84,90.3,14,128.93,10.19,16.5,24.25,31.29,40.71,41.4,15.35,9.43,32.19,12.62,49.91,10.25A105.48,105.48,0,0,0,201,447.29a24.59,24.59,0,0,0,9.06-.83,67.8,67.8,0,0,0,12.82-5.58A286.21,286.21,0,0,0,248,426.08,161.8,161.8,0,0,0,269.61,409c6.33-6,12.47-12.65,14.37-21.48a2.24,2.24,0,0,0,0-.24c14.15,1.39,28.11-5.8,38-17.72a67.26,67.26,0,0,0,11.32-18.89c.15-.4.28-.8.42-1.21,6.07-4.56,7.73-14.17,9-21.2,1.75-10.17,2.13-20.51,2.76-30.8.64-10.61,1.55-21.31,4.59-31.53,1.49-5,3.39-10.46,7.07-14.29,3.88-4,10.42-5.73,14.82-1.49a1.66,1.66,0,0,0,.59.37c3.17,9.86,2.65,20.78,3.54,31,1.15,13.08,1.35,26.84,4.53,39.61,2.52,10.12,8.62,20.37,19.72,21.87,12.24,1.65,22.52-7.18,30.13-16,8.7,14.89,22.67,27.57,40.78,26.94s34.42-17.8,38.44-35.34c17.41,13,42.58,15.83,62.25,6.25a186.74,186.74,0,0,0,17.33-10.15c1.05-.66,6.5-3.45,9-6a36.42,36.42,0,0,0,34.7,5.78,49.19,49.19,0,0,0,17.26-10.53c5.07-4.65,8.56-10.69,13.4-15.44,7.48,5.17,15.87,1.18,22.51-4.12a165.23,165.23,0,0,0,23.72-17.86c8.88-7.87,16.84-16.92,22.38-27.54,6.39-12.25,9.91-26,14.15-39.15,3.75-11.62,9.56-32,25.69-28.9a1.67,1.67,0,0,0,1.47-.4c5.63,8.29,5.11,21.7,3.79,31.1-2.1,14.88-8.86,28.47-10.89,43.36-1.33,9.72-2.44,21.9.38,31.49,3.5,11.92,15.48,13.3,25.94,10.73a53.83,53.83,0,0,0,28.62-18.3c.56,2.34,1.47,4.67,2,6.32,1.32,4,3.21,8.45,7.62,9.67,4.92,1.36,9.94-2.37,12.88-6a25.63,25.63,0,0,0,4.76-10.62c7.5-13.7,10-30.64,11.26-45.86.87-10.82,1-21.65,4.33-32.07,2.24-7,9.36-26.19,19.29-22.44,3.76,14.73,2.4,30.69,5.54,45.53,2.44,11.5,7.34,23.6,16.73,31.06A30.21,30.21,0,0,0,921,251c6.27.69,12.26-2.34,17.19-6a62.5,62.5,0,0,0,13.16-13.38,1.31,1.31,0,0,0,1.14-.06c11.27-6.31,14.4-22,18-33.31,2.31-7.25,6.26-13.6,8.88-20.68,1.93-5.2,2.47-11.64-1-16.28A.76.76,0,0,0,977,161.53ZM915.82,127c3.7,12,3.46,24.49,2.73,36.85-.39,6.62-.92,13.25-1,19.89-.08,4.94-.33,10.5,2.15,14.95a10.16,10.16,0,0,0,12,4.77,21.43,21.43,0,0,1-2,2.5c-5,5.36-13.85,7.34-16.18-1.36-1.38-5.19-.75-11-.61-16.33.2-7.3.62-14.59.91-21.88.55-13.85.68-27.89-2.07-41.54a43.74,43.74,0,0,0-5.29-14.55A43.47,43.47,0,0,1,915.82,127ZM808.53,144.59c5.64,11.45,6,24.8,4.55,37.26-1.52,12.82-4.46,25.49-6.92,38.15s-5.84,25.52-5.93,38.39v0c-.34.15-.67.31-1,.44-3.49,1.31-8.48.88-7.63-4.07.63-3.65,1.89-7.29,2.77-10.89,6-24.45,17.41-47.94,16.51-73.74-.4-11.75-3.92-26.89-11.63-37.64A38.28,38.28,0,0,1,808.53,144.59ZM682,189.76a33.17,33.17,0,0,1,9,12.8c4.21,10.26,3.91,21.57,3.43,32.49a67.52,67.52,0,0,1-7.06,9.72,107.26,107.26,0,0,0,.82-15.26,93,93,0,0,0-1.84-18.83c-1.51-7.81-4-19-11.92-22.73-.2-1.22-.4-2.46-.62-3.71C676.33,186.34,679.55,187.65,682,189.76Zm-158.13,22c-4,9.91-4.85,20.83-4.18,31.43.67,10.76,2.13,22.2,7.14,31.87a44.56,44.56,0,0,0,19.31,18.88,45.54,45.54,0,0,0,17.31,4.89,40,40,0,0,1-24.41-1.93c-22-9.1-28.85-37.66-28.11-59.51a90,90,0,0,1,7.79-34.4c2.25-4.84,5.72-10.69,11-12.59,4.65-1.69,8,.41,10.64,3.52C532.21,195.93,526.91,204.2,523.89,211.71Zm-61.82-16.27a59.76,59.76,0,0,1,5.58,19.83c1.38,13.63-.6,27.36-2.52,40.83-1.81,12.67-5.08,25.31-6.17,38-.86,10.09,1.24,20.85,9.75,27.17a16.32,16.32,0,0,0,8.15,3.26,18.37,18.37,0,0,1-16-6c-7.7-8.74-6.39-24.88-5.95-35.77,1-24.83,6.69-49.18,7.61-74C462.73,204,462.87,199.54,462.07,195.44ZM324,195.13A21.13,21.13,0,0,1,334.11,200c1.16,1.05,2,2.8,3.05,4.21a84.3,84.3,0,0,0-6.3,11.79c-3-8.86-7.8-18.07-16.72-21.33l-.21-.07A34.13,34.13,0,0,1,324,195.13ZM316.18,82.19c-18.19,17.74-33.92,42.52-35.95,68.66-3.47,15.69-5,31.89-6.32,47.83-1.84,21.81-2.53,43.72-2.19,65.61q.24,16,1.24,32c.63,10.1,1.22,20.31,3.46,30.2,1.93,8.56,5.49,17.88,13.3,22.59a18.1,18.1,0,0,0,11.06,2.53,12.4,12.4,0,0,1-11.88-.46c-9-4.9-14.68-16.25-18-25.59-4.42-12.41-5.41-26.6-6.25-39.67-1.79-27.92.1-56.14,2-84,1.5-21.64,3.93-43.43,10-64.3,6.6-22.69,18-44,36.8-58.41C314.36,80.22,315.26,81.21,316.18,82.19ZM148,76.88c.09-1,.15-1.93.19-2.9a129.55,129.55,0,0,1,2,17.89c.57,9.45.79,18.92.75,28.39-.09,19.24-1.23,38.47-2.76,57.65-.22,2.74-.46,5.47-.77,8.22-.15,1.31-.3,2.63-.44,3.94-1.67,14.76-2.49,29.79-3.66,44.68-1.24,15.89-2.22,31.81-2.5,47.75q-.09,5-.09,10.05c0,14.8,1.74,31.64,12.33,42.25A43.67,43.67,0,0,0,164.8,345a41.94,41.94,0,0,0,31.72,4.33c-15.24,7.37-35.24,4.94-47.44-7.49-19.74-20.13-16-50.31-14.56-75.94,2-36.74,3-73.53,5.62-110.23q1.92-27.12,4.89-54.14C146,93.32,147.26,85.12,148,76.88ZM88.35,145.56c-3.28,5.7-6.45,11.23-12,15a26.45,26.45,0,0,1-6,3,28.69,28.69,0,0,0,2.72-2c7.84-6.57,11.73-16,15.82-25.18,2.36-5.28,5.16-10.49,10.44-13.24,6.3-3.28,10.84,1,11,7.7h0C100.43,128.41,92.86,137.73,88.35,145.56ZM266.7,407.23a163.31,163.31,0,0,1-20.92,16.54c-6.94,4.7-14.14,9-21.47,13l-.05,0c20.75-12.28,37.77-31.19,45.35-54.1a37.42,37.42,0,0,0,11,4.08C278.86,395.25,272.73,401.54,266.7,407.23Zm86.79-155.72c-6.37,8.47-8.35,20.58-9.59,30.87-1.38,11.53-1.47,23.16-2.55,34.72a125,125,0,0,1-2.83,17.74,47,47,0,0,1-3.38,9.33c1.21-6.65,1-13.62,1.6-20.32.67-7.36,1.29-14.74,1.76-22.12.92-14.81,2.24-29.45,5.78-43.9,1.47-6,2.73-13.24,8-17,2.27-1.65,5.62-3.36,8.52-3.47,4.77-.17,7.77,4,9.72,8.06C364.52,243,357.45,246.23,353.49,251.51Zm386.59-42.76c-3.67,11.46-7.05,23.16-13.36,33.47-5.45,8.9-12.64,16.59-20.41,23.44-2.57,2.26-5.24,4.39-7.95,6.48a158.48,158.48,0,0,0,16-23.26,178.8,178.8,0,0,0,16.34-37c2.86-9.45,4.17-19.32,7.45-28.65,3.9-11.11,12.16-23,25.56-19.56a16.51,16.51,0,0,1,6.84,3.5C750.43,165.74,744.81,194,740.08,208.75ZM866.77,177a76.22,76.22,0,0,0-8.7,30.16c-1,11.83-1.38,23.6-3.77,35.28a131.49,131.49,0,0,1-4.15,15.13c2.24-23.71.41-48.1,6.79-71.2a64.79,64.79,0,0,1,7.65-17.87,46.48,46.48,0,0,1,5.42-6.91c1.08-1.13,2.7-3.22,4.25-3.75,1-.35,5.44.76,6.08,1.37.88.83,1.24,2.31,1.65,3.46.2.56.38,1.11.56,1.67C875.35,163.4,870.06,170.94,866.77,177Zm72,62.83c-5.68,5-12.78,9.68-20.62,7.68A28.55,28.55,0,0,1,903,237.1c-7.79-9.93-10.62-22.95-11.91-35.27-.85-8.12-1.17-16.3-2.26-24.39-.82-6.11-1.58-13.59-4.93-18.89-6.67-10.57-16.92-.09-21.58,6.6-13,18.71-13.38,43.89-14.36,65.88-.27,6-.6,11.94-1.07,17.91-.51,6.49-.44,13.17-2.13,19.5-1.55,5.8-11.38,20.74-16.52,9.69-1.51-3.26-4.66-10.69-3.22-14.16.68-1.64-2.58-2.86-3.46-1.52a51.74,51.74,0,0,1-30,21.78c-6.38,1.65-14.88,2.59-19.12-3.72-2.92-4.34-3.12-10.18-3.17-15.24-.12-12.91,1.2-25.37,5.28-37.66,4.35-13.12,8.22-26.57,7.12-40.58-.78-10-3-20.16-12.79-24.61-8.73-4-18.47-2.74-25.37,4.13-6.49,6.46-9.38,15.88-11.59,24.57-2.38,9.35-4.21,18.64-7.59,27.69A181.14,181.14,0,0,1,702.16,261a125.2,125.2,0,0,1-14.57,17.33c-5.65,5.47-15.3,14-23,7.1-.61-.55-2-.93-2.64-.3-4,3.59-6.59,8-10.16,12.06a53.2,53.2,0,0,1-15.11,12.09c-12.42,6.44-27.2,5.7-37.76-4-.85-.79-4-.72-3.08,1.09-.39-.77-.34,0-1.26.55s-1.76,1.31-2.64,1.91c-2.41,1.67-4.89,3.22-7.39,4.76-4.75,2.94-9.55,6-14.55,8.5-19.1,9.53-44.17,6.42-60.35-7.33-.69-.58-2.88-1.09-3.12.32-2.67,16.24-16.8,33.58-33.59,35.7-18.22,2.31-32.55-12-40.49-27-.61-1.14-2.47-1.93-3.44-.74-7.67,9.4-22.18,23.52-35,14.57-10.58-7.36-11.24-23.29-12.29-34.94-1.09-12.23-2-24.45-2.91-36.69-.73-9.65-2.4-20.09-9.1-27.51-6.09-6.73-16.38-4.05-22.27,1.75-3.07,3-4.22,7.3-5.4,11.36a167.43,167.43,0,0,0-4.43,20.93c-2,12.71-2.48,25.35-3.48,38.16-1,12.36-.92,25.36-4.38,37.34-2.9,10-9.29,19.11-17.05,25.9-11.7,10.24-27.54,14.3-41.6,6.38-.6-.34-1.19-.7-1.78-1.07-.78-.5-2.39-.5-2.72.6-10.37,33.95-41.87,58.93-75.29,66.92-18,4.31-36.38,3.33-52.81-5.75-17.21-9.51-31.73-24.51-42.26-41.15C72,361.45,73.18,314,82.09,271.14c9-43.36,25.75-85.21,31.07-129.36.92-7.64,2.64-19.29-6.63-22.65-8.18-3-15.84,5.29-19.26,11.77-5.41,10.24-8.53,21.73-18.06,29.1-5.11,3.94-12.17,6.48-18.55,4.53A14.58,14.58,0,0,1,40.42,152c9.29,4.16,20.47.23,26.7-7.84,9.38-12.14,8-28.46,8.31-42.93.31-16.58,4.63-33.64,14.72-47s26.4-17.7,40.74-8c6.78,4.58,12.09,11.74,13.32,20,1,7.12-.45,14.4-1.34,21.45-2.26,17.83-4,35.75-5.42,53.67-2.93,36.45-3.91,73-5.87,109.47-.86,16.09-2.92,32.59-2.17,48.71a75.82,75.82,0,0,0,8.22,31.86c10.57,20,31.74,28.83,53.34,23.48,21.22-5.26,30.09-24.71,33.41-44.9,5-30.2,4.72-61.38,6.15-91.89,1.63-34.63,2.25-70.59,11.93-104.06,3.41-11.78,8.19-23.49,16.62-32.52,8.95-9.6,22.86-16.57,36.1-14.56a23.21,23.21,0,0,1,16,9.54c-37.66,28.45-45.09,80-48.2,124.42-2.2,31.41-4.44,63.37-1.23,94.78,1.32,12.95,3,26.18,8.8,37.95,4.08,8.28,10,17.45,18.85,21,7.47,3,16.64-.42,20.8-7.25,5.82-9.56,3-23.82,3.93-34.53.78-8.94,1.72-17.67,1.68-26.64,0,0,0-.05,0-.08,0-.29,0-.58,0-.87a1.1,1.1,0,0,0,0-.18c-.48-17.49-2.06-36.47-9.44-52.5-.51-1.12-2.57-2-3.43-.74-2,2.82-4.22,5.53-7.58,6.63-5.59,1.83-7.5-3.38-8.16-8.06C286,222,289,213.21,294,206.55c5.83-7.73,15.59-13.44,24-6,6,5.31,8.77,13.56,10.83,21.12.39,1.44,3,1.86,3.62.39,6.41-16.39,23.55-44.31,44.4-31,16.83,10.78,18.92,35,20.59,53.09,2,21.84,4.62,43.79,5.54,65.7.27,6.46-1.41,17.83,6.86,20.11,6.9,1.9,12-5.77,13.73-11.44,2.55-8.41,1.21-16.93-1-25.21-2.88-10.75-3.63-22.07-4-33.17a272.58,272.58,0,0,1,1.05-33.93c.95-10.39,1.6-21.84,5.28-31.7s13.38-18,23.84-12.25c4.41,2.41,8.44,6.91,9.7,11.89,1.16,4.59.52,9.49.35,14.17-.78,21.33-5,42.23-6.9,63.45-1,11.43-1.65,23.42.3,34.79,1.41,8.15,5.29,15.12,12.85,18.74,6.17,2.95,13.76,3.36,20,.31,8.22-4,11.25-13.41,14.87-21.09a1.35,1.35,0,0,0-.23-1.15c-14.93-22.06-17.46-50.3-15.24-76.31,2-23.55,8.24-52.32,25.41-69.59,8.71-8.77,22.07-13.46,34.1-9.91,13,3.83,19.39,14.43,18.43,27.87A43.93,43.93,0,0,1,556,195.76c-3.07,4.75-5.9,5.22-9.92.15-1.27-1.6-2.17-3.38-3.7-4.79-6.34-5.84-14.75-5.45-20.76.6-7.52,7.58-10.8,19.94-12.74,30.15a94.18,94.18,0,0,0,.05,36.27c4.17,20.58,15.6,39.45,37.09,43.82a42.75,42.75,0,0,0,27.08-3.15c.39-.18.8-.38,1.21-.59l.95-.17a1.55,1.55,0,0,0,1.21-1c2.45-1.41,4.84-3.25,5.73-5.74,1.24-3.47-1.39-6.81-3.1-9.65-6.45-10.73-6.65-25.93-6.26-38.12a150.27,150.27,0,0,1,7.17-40.4c4.34-13.73,10.27-27,18.74-38.67,7.89-10.83,18.59-22,31.86-25.49,28.67-7.59,36.87,28.72,40.25,49.62a2,2,0,0,0,1.44,1.58c8,2.71,9.9,17,11,24.05A89.17,89.17,0,0,1,684.44,230c-.14,6.57,0,14.23-2.46,20.38-.6,1.52,2.17,2.68,3.18,1.79a65.46,65.46,0,0,0,11.47-13.59,1.62,1.62,0,0,0,.94-1.45v-.05c5.95-9.69,10-20.71,13.44-31.55a1.31,1.31,0,0,0,.3-.53c.22-.82.43-1.64.66-2.45s-.6-1.72-1.39-2c-11.18-3.64-15.08-18.33-16.11-28.81-1.14-11.65,1.36-23,5.62-33.8,3.75-9.48,9.51-19.71,18.59-24.86,16.84-9.55,20.31,13.81,20.83,25.18.09,1.84,3.63,2.48,3.75.39.18-3.15,4.9-5.84,7.18-7.34a78.16,78.16,0,0,1,10.09-5.59,33.7,33.7,0,0,1,15.91-3.48c28.68,1.61,32.93,43.51,29.41,65.46a191.89,191.89,0,0,1-9.92,36.77,149.28,149.28,0,0,0-4.84,16.63c-1.14,4.67-4,10.91-3.49,15.72.87,8.2,11.11,6.31,16.1,3.67,7.29-3.88,11.35-11.7,14.08-19.24,8.2-22.71,10.35-48,11-72a154.13,154.13,0,0,0-.29-17.06c-.47-5.54-2-13.82,1.51-18.62,4.15-5.62,5.78.57,7.08,3.59a10.63,10.63,0,0,0,2.55,4c2.49,2.16,6.15,2.19,9.13,1.17s4.87-3.31,6-6.32c1.89-5.15,3-10.21,5.92-15,6-10,17-18.72,29.1-17.92,12.89.84,17.13,13.94,19,24.93,2.16,13.14,1.9,26.53,1.34,39.79-.3,7.29-.71,14.58-.88,21.88-.11,5-.52,10.37.82,15.28,2.53,9.27,12.46,11.07,19.72,5.84,9-6.49,10.62-18.34,13.74-28.26,1.86-5.92,4.45-12.08,10-15.26a28.14,28.14,0,0,1,8.44-2.7c3.61-.76,8.86-2.57,12.5-1.09,1.5,2.06-4.51,8.13-5.45,9.63a42.88,42.88,0,0,0-4,8.34c-2.38,6.59-3.39,13.58-4.85,20.41C957,216.56,950.09,229.87,938.8,239.81Zm36-58.78a119.45,119.45,0,0,0-7.13,16.52c-2,6.2-3.58,12.57-6.37,18.48a36.36,36.36,0,0,1-5.38,8.25A78.07,78.07,0,0,0,963.76,203c1.77-8.24,2.88-16.84,6.54-24.5,2-4.27,5.91-7.31,7.87-11.47l.08-.22C978.74,171.71,977.13,176.36,974.81,181Z"/><path d="M628,178.2c-13.43,1.35-23.49,15.55-28.45,27.11-5.4,12.59-6.64,26.86-4.84,40.4.86,6.47,2.75,12.13,10.37,11.26,4.49-.51,9-2.6,12.07,2.19,2.2,3.39,2.09,8,2.14,11.92,0,1.67,2.54,2.13,3.52,1.12-.73.75.24.15,1,.06,1.1-.14,2.18-.35,3.27-.51,2.42-.35,4.84-.67,7.25-1,4.53-.61,9.15-1.69,12.84-4.57,4.25-3.31,6.11-8.3,6.67-13.57a208.7,208.7,0,0,0,.8-24.63C654.33,211.26,652.32,175.75,628,178.2Zm-20.85,75.13c-2.38.51-4,1.27-6.12-.29-1.89-1.41-2-3-2.33-5.25a86.64,86.64,0,0,1-.94-9.64,76.76,76.76,0,0,1,1.44-18.83c2.58-12.46,8.63-24.48,18.38-32.72,4.86-4.1,11.65-7.08,17.94-4.68a12.86,12.86,0,0,1,3.93,2.4,27.31,27.31,0,0,0-16.67,4.85c-6.24,4.32-9.56,11-12.14,18-5,13.59-11.42,32.5-2.79,46Zm43.74-25.74c0,.33,0,.65,0,1a2,2,0,0,0-.09.73l0,.49a2.25,2.25,0,0,0,.06.4c0,6.69-.15,13.39-.64,20.06-.47,6.39-2.53,12.22-8.51,15.2-4,2-8.4,2.29-12.73,2.89-1.43.2-3.9.2-6,.57-.16-4.28-.74-8.7-3.53-12.06a10.76,10.76,0,0,0-9.1-3.92,40.15,40.15,0,0,1-3.68-19.62c.55-7.41,2.85-14.57,5.27-21.53,2.28-6.56,4.69-13.53,9.93-18.31a23.85,23.85,0,0,1,19.82-5.74,1.54,1.54,0,0,0,.75,0,27.59,27.59,0,0,1,2.18,3.74C650,202.38,650.69,215.59,650.93,227.59Z"/><path d="M718,132.07c-3.55,0-6.28,2.92-8.27,5.57-5.67,7.53-11.11,19.51-8.19,29.12,2.74,9,13.68,2.37,17.4-1.85,5.45-6.83,9.86-18.08,6.39-26.78C724.14,135.06,721.51,132.1,718,132.07Zm4.68,11.84c.08,6.87-2.81,13.86-7,19.13a16.84,16.84,0,0,1-6.61,4.79c-5.53,1.92-4.37-7.92-3.82-11A41.58,41.58,0,0,1,713,139.5c1.38-1.83,4-5.3,6.47-4a3.86,3.86,0,0,1,1.37,1.17l-.21.19a30.41,30.41,0,0,0-7.15,14.29,37.67,37.67,0,0,0-.81,5.69,11.45,11.45,0,0,0,.12,3.15c.21.89.3,1.88.58,2.75a9,9,0,0,0,.42,1l.42.83a.74.74,0,0,0,.29.36c.24.13.52,0,.73-.2l.91-.67a.51.51,0,0,0,.2-.21.59.59,0,0,0,0-.23,50.65,50.65,0,0,1-.71-5.3,31.06,31.06,0,0,1,.59-5.86,28.83,28.83,0,0,1,6-12.52A19,19,0,0,1,722.71,143.91Z"/><path d="M433.83,170.82a19.09,19.09,0,0,0,8.57,1c10.18,3.7,22.29-5.54,22.94-16.52a17.74,17.74,0,0,0-7.59-15.5c-4.58-3.11-10.56-3.56-15.83-2.39s-9.11,4.32-12.22,8.82C424.31,154,424.34,166.66,433.83,170.82Zm21.07-29.13a14.69,14.69,0,0,1,7.48,12.59,15.9,15.9,0,0,1-7,13.07,15,15,0,0,1-6.26,2.36,17.87,17.87,0,0,0,7.71-7.88c3.5-7,2.44-16.45-4.07-21.06A14.12,14.12,0,0,1,454.9,141.69Zm-25.45,16.22c0-4,.93-8.81,3.88-11.64,4.57-4.37,10.44-6.33,16.27-3s7.22,10.89,4.73,16.82c-3.11,7.38-11.65,9.82-18.75,7.31C431.49,165.65,429.48,162.43,429.45,157.91Z"/></g></g></svg>